#tb 0: 1/44100
#media_type 0: audio
#codec_id 0: pcm_s16le
#sample_rate 0: 44100
#channel_layout_name 0: stereo
0,          0,          0,     4096,    16384, 0x4c8bf0a9
0,       4096,       4096,     4096,    16384, 0x14edf1cf
0,       8192,       8192,     4096,    16384, 0xaee9ef1d
0,      12288,      12288,     4096,    16384, 0x6ac2f1ef
0,      16384,      16384,     4096,    16384, 0x1cf0f19d
0,      20480,      20480,     4096,    16384, 0x4569f2f3
0,      24576,      24576,     4096,    16384, 0xe11df3bd
0,      28672,      28672,     4096,    16384, 0x9456f0dd
0,      32768,      32768,     4096,    16384, 0x4a75f141
0,      36864,      36864,     4096,    16384, 0x14edf1cf
0,      40960,      40960,     4096,    16384, 0x9513ef17
0,      45056,      45056,     4096,    16384, 0x5e7ae8ab
0,      49152,      49152,     4096,    16384, 0x82cd014e
0,      53248,      53248,     4096,    16384, 0x4a92f8fb
0,      57344,      57344,     4096,    16384, 0x256aea11
0,      61440,      61440,     4096,    16384, 0x7e83e36d
0,      65536,      65536,     4096,    16384, 0xefaf076c
0,      69632,      69632,     4096,    16384, 0x5c81f177
0,      73728,      73728,     4096,    16384, 0x7bc50bca
0,      77824,      77824,     4096,    16384, 0x862bec7b
0,      81920,      81920,     4096,    16384, 0x2537d1c1
0,      86016,      86016,     4096,    16384, 0xdbdff8c5
0,      90112,      90112,     4096,    16384, 0x37aa93d9
0,      94208,      94208,     4096,    16384, 0xc66ae5e9
0,      98304,      98304,     4096,    16384, 0x98f802b8
0,     102400,     102400,     4096,    16384, 0x6a51c5c9
0,     106496,     106496,     4096,    16384, 0xcdbcbd2f
0,     110592,     110592,     4096,    16384, 0x3d7ffad3
0,     114688,     114688,     4096,    16384, 0x1a35deb5
0,     118784,     118784,     4096,    16384, 0xf4bddbe7
0,     122880,     122880,     4096,    16384, 0x0519d449
0,     126976,     126976,     4096,    16384, 0x1224e6c9
0,     131072,     131072,     4096,    16384, 0x8e71efad
0,     135168,     135168,     4096,    16384, 0x36dff10e
0,     139264,     139264,     4096,    16384, 0x4a7df691
0,     143360,     143360,     4096,    16384, 0x3864eedd
0,     147456,     147456,     4096,    16384, 0x0504f93c
0,     151552,     151552,     4096,    16384, 0x4390fb01
0,     155648,     155648,     4096,    16384, 0x16fde76f
0,     159744,     159744,     4096,    16384, 0x2152fbe8
0,     163840,     163840,     4096,    16384, 0x0e9aeca7
0,     167936,     167936,     4096,    16384, 0x125af75b
0,     172032,     172032,     4096,    16384, 0xa5feeef3
0,     176128,     176128,     4096,    16384, 0x66222bc6
0,     180224,     180224,     4096,    16384, 0x7897a4a2
0,     184320,     184320,     4096,    16384, 0x592d9251
0,     188416,     188416,     4096,    16384, 0x27cfa305
0,     192512,     192512,     4096,    16384, 0xb137980b
0,     196608,     196608,     4096,    16384, 0xb8e1aaf7
0,     200704,     200704,     4096,    16384, 0xc3399614
0,     204800,     204800,     4096,    16384, 0x5c60abb9
0,     208896,     208896,     4096,    16384, 0x35049983
0,     212992,     212992,     4096,    16384, 0x7897a4a2
0,     217088,     217088,     4096,    16384, 0x592d9251
0,     221184,     221184,     4096,    16384, 0x27cfa305
0,     225280,     225280,     4096,    16384, 0xb137980b
0,     229376,     229376,     4096,    16384, 0xb8e1aaf7
0,     233472,     233472,     4096,    16384, 0xc3399614
0,     237568,     237568,     4096,    16384, 0x5c60abb9
0,     241664,     241664,     4096,    16384, 0x35049983
0,     245760,     245760,     4096,    16384, 0x7897a4a2
0,     249856,     249856,     4096,    16384, 0x592d9251
0,     253952,     253952,     4096,    16384, 0x27cfa305
0,     258048,     258048,     4096,    16384, 0xb137980b
0,     262144,     262144,     2456,     9824, 0xb11a92b2
